<svg xmlns="http://www.w3.org/2000/svg" style="position:absolute; width: 0; height: 0"><symbol viewBox="0 0 16 16" id="icon-ban"><path d="M14.444 5.288a7.086 7.086 0 0 0-1.49-2.237 6.991 6.991 0 0 0-2.233-1.495A6.842 6.842 0 0 0 8 1c-.949 0-1.856.185-2.722.556-.866.37-1.61.869-2.233 1.495a7.088 7.088 0 0 0-1.49 2.237A6.866 6.866 0 0 0 1 8.018c0 .954.185 1.866.556 2.735.37.869.867 1.616 1.49 2.242a6.988 6.988 0 0 0 2.233 1.494A6.84 6.84 0 0 0 8 15.046c.948 0 1.855-.186 2.72-.557a6.989 6.989 0 0 0 2.234-1.494 7.074 7.074 0 0 0 1.49-2.242c.37-.87.556-1.78.556-2.735 0-.954-.185-1.864-.556-2.73zM3.853 10.743a4.902 4.902 0 0 1-.811-2.725c0-.9.222-1.732.665-2.497a4.923 4.923 0 0 1 1.805-1.814A4.847 4.847 0 0 1 8 3.042c1.003 0 1.914.276 2.735.829l-6.882 6.872zm8.713-.788a4.956 4.956 0 0 1-1.057 1.59 5.04 5.04 0 0 1-1.581 1.062A4.804 4.804 0 0 1 8 13.004c-.972 0-1.875-.27-2.707-.811l6.872-6.864c.53.815.793 1.71.793 2.69 0 .674-.13 1.32-.392 1.936z"></path></symbol><symbol viewBox="0 0 16 16" id="icon-calendar"><path d="M2.273 5.09V2.546h1.272v1.273h1.273V2.545h2.546v1.273h1.272V2.545h2.546v1.273h1.273V2.545h1.272v2.546H2.273zm0 7.637h11.454V6.364H2.273v6.363zM12.455 1.273V0h-1.273v1.273H8.636V0H7.364v1.273H4.818V0H3.545v1.273H1V14h14V1.273h-2.545z"></path></symbol><symbol viewBox="0 0 16 16" id="icon-check"><path d="M13.668 5.03L6.8 12.252a1.092 1.092 0 0 1-1.6 0L2.33 9.236a1.235 1.235 0 0 1 0-1.683 1.093 1.093 0 0 1 1.6 0L6 9.73l6.068-6.38a1.092 1.092 0 0 1 1.6 0 1.232 1.232 0 0 1 0 1.682"></path></symbol><symbol viewBox="0 0 20 25" id="icon-dashboard"><path d="M9.9 13.3a.8.8 0 0 1 .8.8v6.8a.8.8 0 0 1-.8.8H3.1a.8.8 0 0 1-.8-.8v-6.8a.8.8 0 0 1 .8-.8h6.8zm11 0a.8.8 0 0 1 .8.8v6.8a.8.8 0 0 1-.8.8h-6.8a.8.8 0 0 1-.8-.8v-6.8a.8.8 0 0 1 .8-.8h6.8zm-.65 1.45h-5.5v5.5h5.5v-5.5zm-11 0h-5.5v5.5h5.5v-5.5zM9.9 2.3a.8.8 0 0 1 .8.8v6.8a.8.8 0 0 1-.8.8H3.1a.8.8 0 0 1-.8-.8V3.1a.8.8 0 0 1 .8-.8h6.8zm11 0a.8.8 0 0 1 .8.8v6.8a.8.8 0 0 1-.8.8h-6.8a.8.8 0 0 1-.8-.8V3.1a.8.8 0 0 1 .8-.8h6.8zm-.65 1.45h-5.5v5.5h5.5v-5.5zm-11 0h-5.5v5.5h5.5v-5.5z"></path></symbol><symbol viewBox="0 0 16 16" id="icon-dynamic"><path d="M3.854 12.743c.42.93 1.481.882 1.82-.085l1.61-4.61 1.721 5.163c.353 1.059 1.506.972 1.69-.136l1.421-8.524 1.558 3.114a.7.7 0 0 0 1.252-.626L12.72 2.627c-.473-.947-1.57-.79-1.746.262l-1.311 7.868-1.478-4.434c-.336-1.007-1.432-.997-1.778-.006l-1.71 4.893-.67-1.479c-.39-.861-1.4-.926-1.884-.103l-1.046 1.779a.7.7 0 1 0 1.206.71L3.02 10.9l.835 1.843z"></path></symbol><symbol viewBox="0 0 16 16" id="icon-energy"><path d="M13.395 6.035a.636.636 0 0 0-.577-.368H9.311l2.347-3.689A.636.636 0 0 0 11.121 1H7.303a.636.636 0 0 0-.55.318l-4.667 8.06a.636.636 0 0 0 .55.955H6.47l-1.054 3.863a.636.636 0 0 0 1.101.577l6.788-8.06a.636.636 0 0 0 .09-.678zm-5.99 5.709l.512-1.88a.636.636 0 0 0-.614-.803H3.74l3.93-6.788h2.292L7.615 5.96a.637.637 0 0 0 .537.978h3.298l-4.046 4.805z"></path></symbol><symbol viewBox="0 0 16 16" id="icon-fingerprint"><path d="M4.776 7.922a3.15 3.15 0 0 1 3.146-3.146 3.15 3.15 0 0 1 3.147 3.146h1.258a4.41 4.41 0 0 0-4.405-4.405 4.41 4.41 0 0 0-4.405 4.405A8.21 8.21 0 0 0 7.607 15l.63-1.09a6.947 6.947 0 0 1-3.461-5.988m10.069 0a3.15 3.15 0 0 1-3.147 3.147 3.15 3.15 0 0 1-3.146-3.147.63.63 0 0 0-1.259 0 4.41 4.41 0 0 0 4.405 4.405v1.259a5.67 5.67 0 0 1-5.664-5.664 1.89 1.89 0 0 1 1.888-1.888A1.89 1.89 0 0 1 9.81 7.922a1.89 1.89 0 0 0 1.888 1.888 1.89 1.89 0 0 0 1.888-1.888A5.67 5.67 0 0 0 7.922 2.26 5.67 5.67 0 0 0 2.26 7.922c0 1.628.428 3.24 1.238 4.661l-1.094.623A10.698 10.698 0 0 1 1 7.922 6.93 6.93 0 0 1 7.922 1a6.93 6.93 0 0 1 6.923 6.922"></path></symbol><symbol viewBox="0 0 25 25" id="icon-mail"><path fill-rule="evenodd" d="M3.524 18.527V6.132l8.48 6.845 8.472-6.845v12.395H3.524zM19.143 5.49l-7.095 5.587-7.19-5.587h14.285zM20.182 4H3.818C2.815 4 2 4.797 2 5.778v12.444C2 19.202 2.815 20 3.818 20h16.364C21.185 20 22 19.203 22 18.222V5.778C22 4.798 21.185 4 20.182 4z"></path></symbol><symbol viewBox="0 0 16 16" id="icon-marker"><path d="M7.526 12.493S3.58 7.694 3.58 5.53c0-2.164 1.767-3.918 3.947-3.918s3.948 1.754 3.948 3.918-3.948 6.963-3.948 6.963zM6.317 13.53L7.527 15l1.208-1.47c.036-.044.1-.122.186-.23a39.433 39.433 0 0 0 1.882-2.566c.326-.485.625-.959.891-1.416.867-1.486 1.359-2.71 1.359-3.788A5.528 5.528 0 0 0 7.526 0 5.528 5.528 0 0 0 2 5.53c0 1.078.492 2.302 1.359 3.788.266.457.565.93.891 1.416a39.433 39.433 0 0 0 2.067 2.796zm1.21-10.372a2.368 2.368 0 1 0 0 4.737 2.368 2.368 0 0 0 0-4.737zm0 1.579a.79.79 0 1 1 0 1.579.79.79 0 0 1 0-1.58z"></path></symbol><symbol viewBox="28 34 18 14" id="icon-menuicon"><path fill-rule="evenodd" d="M42 45v2H31v-2h11zm7-6v2H31v-2h18zm0-6v2H31v-2h18z"></path></symbol><symbol viewBox="0 0 16 16" id="icon-message"><path d="M3.435 8.304h6.087V7.087H3.435v1.217zm0-2.434h8.522V4.652H3.435V5.87zm9.739 4.87H10.13v2.981a3.048 3.048 0 0 1-2.434-2.982H2.217V2.217h10.957v8.522zm0-9.74H2.217C1.546 1 1 1.546 1 2.217v8.522c0 .672.546 1.218 1.217 1.218h4.438A4.27 4.27 0 0 0 10.74 15h.609v-3.043h1.826c.671 0 1.217-.546 1.217-1.218V2.217c0-.671-.546-1.217-1.217-1.217z"></path></symbol><symbol viewBox="0 0 40 40" id="icon-notification"><path fill-rule="evenodd" d="M29.445 29.157c-3.557-1.536-3.693-8.127-3.695-8.294v-4.422c0-4.257-2.72-7.917-6.587-9.475C19.155 4.778 17.291 3 15 3c-2.29 0-4.155 1.778-4.163 3.966C6.97 8.524 4.25 12.184 4.25 16.441v4.422c-.003.166-.138 6.758-3.696 8.294a.893.893 0 0 0-.534 1.012.935.935 0 0 0 .923.713h9.018a4.997 4.997 0 0 0 1.4 2.61A5.124 5.124 0 0 0 15 35c1.369 0 2.66-.536 3.637-1.509a4.996 4.996 0 0 0 1.401-2.61h9.018c.445 0 .829-.296.923-.712a.892.892 0 0 0-.534-1.012zM24.759 26c.374 1.084.903 2.173 1.654 3.078H3.587c.75-.905 1.28-1.994 1.654-3.078h19.518zM15 4.805c1.036 0 1.912.665 2.186 1.573a11.234 11.234 0 0 0-4.372 0c.274-.908 1.15-1.573 2.186-1.573zM6.138 20.869V16.44c0-4.672 3.976-8.473 8.862-8.473 4.887 0 8.862 3.801 8.862 8.473v4.435c.001.136.023 1.562.4 3.318H5.738c.376-1.757.398-3.186.4-3.325zM15 33.195c-1.44 0-2.698-.993-3.101-2.313h6.203c-.404 1.32-1.661 2.313-3.102 2.313z"></path></symbol><symbol viewBox="0 0 20 19" id="icon-portfolio"><path d="M18.929 19H1.07C.464 19 0 18.524 0 17.902V5.098C0 4.476.464 4 1.071 4H18.93C19.536 4 20 4.476 20 5.098v12.804c0 .622-.464 1.098-1.071 1.098zM1.346 5.268c-.208 0-.346.137-.346.34v11.92c0 .204.138.34.346.34h17.308c.208 0 .346-.136.346-.34V5.608c0-.203-.138-.34-.346-.34H1.346zM15 4h-1.25c0-1.467-1.125-2.667-2.5-2.667h-2.5c-1.375 0-2.5 1.2-2.5 2.667H5c0-2.2 1.688-4 3.75-4h2.5C13.313 0 15 1.8 15 4z"></path><path d="M0 10h9v2H0zM11 10h9v2h-9z"></path><path d="M12 13H8V9h4v4zm-3.012-1h2.024v-2H8.988v2z"></path></symbol><symbol viewBox="0 0 20 24" id="icon-settings"><path d="M20.976 9.9l-1.404-.238a7.927 7.927 0 0 0-.564-1.362l.828-1.157a1.232 1.232 0 0 0-.134-1.592l-1.245-1.245a1.226 1.226 0 0 0-1.588-.133L15.708 5a7.844 7.844 0 0 0-1.412-.581l-.234-1.387A1.234 1.234 0 0 0 12.842 2h-1.76c-.605 0-1.119.435-1.22 1.032l-.241 1.42a7.731 7.731 0 0 0-1.358.573l-1.15-.827c-.208-.15-.459-.23-.718-.23-.33 0-.643.13-.873.363l-1.25 1.245a1.237 1.237 0 0 0-.133 1.592l.836 1.174c-.23.439-.414.894-.556 1.366l-1.387.234c-.597.1-1.032.614-1.032 1.22v1.76c0 .605.435 1.119 1.032 1.22l1.42.241c.147.468.339.924.573 1.358l-.823 1.145a1.232 1.232 0 0 0 .133 1.592l1.246 1.245a1.226 1.226 0 0 0 1.587.134l1.174-.836c.422.221.865.401 1.32.543l.234 1.404c.1.597.614 1.032 1.22 1.032h1.763c.606 0 1.12-.435 1.22-1.032l.239-1.404A7.927 7.927 0 0 0 15.7 19l1.157.827c.209.15.46.23.718.23.33 0 .64-.13.874-.363l1.245-1.245a1.237 1.237 0 0 0 .133-1.592L19 15.695a7.87 7.87 0 0 0 .564-1.362l1.404-.234A1.234 1.234 0 0 0 22 12.88V11.12a1.22 1.22 0 0 0-1.024-1.22zM12.85 3.125c.054 0 .1.037.109.092l.292 1.742c.038.221.2.401.418.455.63.16 1.233.406 1.792.736.193.113.43.104.615-.025l1.44-1.036a.124.124 0 0 1 .064-.021c.016 0 .05.004.079.033l1.245 1.245a.113.113 0 0 1 .013.142l-1.032 1.45a.565.565 0 0 0-.025.614c.325.547.568 1.136.726 1.75.055.218.234.38.452.414l1.754.297a.108.108 0 0 1 .092.108v1.76h-.004c0 .054-.037.1-.092.108l-1.754.292a.56.56 0 0 0-.452.414 6.688 6.688 0 0 1-.727 1.75.565.565 0 0 0 .025.615l1.032 1.454a.114.114 0 0 1-.012.142L17.655 18.9a.106.106 0 0 1-.08.033.103.103 0 0 1-.062-.02l-1.45-1.033a.565.565 0 0 0-.614-.025 6.688 6.688 0 0 1-1.75.727.555.555 0 0 0-.414.452l-.297 1.754a.108.108 0 0 1-.109.092H11.12a.108.108 0 0 1-.108-.092l-.293-1.754a.56.56 0 0 0-.413-.452 6.945 6.945 0 0 1-1.713-.702.578.578 0 0 0-.284-.075.55.55 0 0 0-.326.105L6.52 18.95a.124.124 0 0 1-.063.02.112.112 0 0 1-.08-.033l-1.245-1.245a.113.113 0 0 1-.012-.142l1.028-1.441a.572.572 0 0 0 .025-.618 6.625 6.625 0 0 1-.736-1.747.572.572 0 0 0-.45-.413L3.22 13.03a.108.108 0 0 1-.092-.109v-1.759c0-.054.038-.1.092-.108l1.742-.293a.565.565 0 0 0 .456-.418 6.681 6.681 0 0 1 .714-1.754.558.558 0 0 0-.03-.61l-1.04-1.463a.114.114 0 0 1 .013-.142L6.32 5.13a.106.106 0 0 1 .08-.033c.024 0 .045.008.062.02l1.441 1.029c.184.13.427.137.619.025a6.625 6.625 0 0 1 1.746-.736.572.572 0 0 0 .414-.45l.3-1.768a.108.108 0 0 1 .11-.092h1.758zm-.848 4.558a4.319 4.319 0 0 0-4.316 4.316 4.319 4.319 0 0 0 4.316 4.316 4.319 4.319 0 0 0 4.316-4.316 4.319 4.319 0 0 0-4.316-4.316zm0 1.128a3.19 3.19 0 0 1 3.188 3.188 3.19 3.19 0 0 1-3.188 3.188 3.19 3.19 0 0 1-3.188-3.188 3.19 3.19 0 0 1 3.188-3.188z"></path></symbol><symbol id="icon-sprite"></symbol><symbol viewBox="0 0 15 19" id="icon-will"><path d="M14 4H2c-.364 0-.706-.097-1-.268V17a1 1 0 0 0 1 1h12V4zm.854-.854c.09.09.146.216.146.354v15a.5.5 0 0 1-.5.5H2a2 2 0 0 1-2-2V2a2 2 0 0 1 2-2h11.5a.5.5 0 0 1 .5.5V3h.5c.138 0 .263.056.354.146zM6.5 8a.5.5 0 1 1 0-1h5a.5.5 0 1 1 0 1h-5zm-4-.5a1 1 0 1 1 2 0 1 1 0 0 1-2 0zm4 3.5a.5.5 0 1 1 0-1h5a.5.5 0 1 1 0 1h-5zm-4-.5a1 1 0 1 1 2 0 1 1 0 0 1-2 0zm4 3.5a.5.5 0 1 1 0-1h5a.5.5 0 1 1 0 1h-5zm-4-.5a1 1 0 1 1 2 0 1 1 0 0 1-2 0zM13 3V1H2a1 1 0 1 0 0 2h11z"></path></symbol></svg>